<svg width="80" height="80" viewBox="0 0 80 80" fill="none" xmlns="http://www.w3.org/2000/svg">
<path d="M31.6834 12.2277C34.421 3.92411 46.3407 3.9241 49.0783 12.2277L52.0156 21.137C53.2399 24.8505 56.7512 27.3647 60.713 27.3647H70.2183C79.0773 27.3647 82.7607 38.5371 75.5936 43.669L67.9037 49.1753C64.6985 51.4703 63.3573 55.5384 64.5816 59.2519L67.5189 68.1612C70.2564 76.4648 60.6132 83.3697 53.4461 78.2378L45.7562 72.7316C42.551 70.4365 38.2108 70.4365 35.0055 72.7316L27.3156 78.2378C20.1485 83.3697 10.5053 76.4648 13.2429 68.1612L16.1801 59.2519C17.4044 55.5384 16.0632 51.4703 12.858 49.1753L5.16811 43.669C-1.99898 38.5371 1.68441 27.3647 10.5434 27.3647H20.0487C24.0105 27.3647 27.5218 24.8505 28.7461 21.137L31.6834 12.2277Z" fill="#281D1D"/>
<path d="M46.542 57.305C46.6935 57.273 46.6865 57.2712 46.8379 57.3076C47.1327 57.5572 46.919 58.082 46.8777 58.4485C46.8022 59.1606 46.8252 59.8846 46.9456 60.5959C47.5038 63.9045 49.7361 66.3148 52.4636 67.6928C53.1797 68.097 54.1661 68.2967 54.8142 68.8099C55.5708 69.4093 54.8279 69.8838 54.1958 69.8148C53.3501 69.7225 52.6326 69.4667 51.8257 69.2589C49.4691 68.6519 47.0367 67.6791 44.6083 67.9242C42.6934 68.1414 41.4714 70.001 40.242 71.3588C39.2636 72.4015 38.3545 73.4808 37.1711 74.2623C36.8605 74.4674 35.6536 75.2917 35.5603 74.333C35.5245 73.9626 35.8176 73.6219 36.043 73.3726C36.6117 72.7939 37.1759 72.2092 37.732 71.6128C39.7519 69.4467 41.3958 66.8657 42.7564 64.1519C43.0321 63.6019 43.2653 63.0038 43.5178 62.4394C43.2716 64.0587 42.5762 66.1351 41.8522 67.5728C41.5932 68.0871 41.1138 68.6984 40.9256 69.1293C40.9491 69.2659 40.923 69.205 41.0213 69.313C41.3115 69.3934 42.3668 68.2275 42.7238 67.9732C43.1008 67.7052 43.5148 67.5032 43.9517 67.3752C45.6675 66.8707 47.1108 67.3428 48.8129 67.2667C48.8992 67.2628 48.9213 67.1637 48.94 67.0961C48.8659 66.8767 48.4227 66.4888 48.2475 66.3263C46.3307 64.5472 45.2923 61.5813 45.82 58.927C45.9394 58.3267 46.0783 57.7227 46.542 57.305ZM65.1592 38.8145C65.2853 38.7623 65.4883 38.6926 65.5735 38.8551C65.8627 39.407 65.1044 40.506 64.8504 40.9445C63.8647 42.646 62.5928 44.1119 61.5473 45.7624C60.8167 46.9157 60.0017 48.466 60.4974 49.9412C60.7383 50.6438 61.1845 51.2794 61.5574 51.9127C62.4714 53.4648 63.4348 54.998 64.3201 56.5672C64.6923 57.227 64.121 58.0355 63.5323 57.8682C62.9289 57.6967 62.2999 56.0406 61.89 55.5158C60.9065 53.7957 59.7569 52.1473 59.0135 50.3044C58.8561 49.9135 58.9502 49.0497 59.0054 48.6556C58.4587 49.3144 57.8075 50.1621 57.2999 50.8556C55.555 53.2391 51.8959 56.5249 53.4492 60.0139C53.8208 60.8397 54.4734 61.4793 55.2625 61.7897C57.4099 62.6496 58.9399 60.7623 57.3495 58.7343C56.6618 57.8747 55.4894 57.036 55.957 55.7033C56.5235 54.0889 58.2261 54.2392 59.4287 54.7367C61.801 55.8122 63.5519 58.8265 63.787 61.5579C64.1164 65.389 61.5828 68.0867 58.1946 68.2611C57.5238 68.2956 56.9713 68.2415 56.3002 68.1489C51.9241 67.5448 46.8612 62.9094 48.1084 57.68C48.5064 56.0112 49.4948 54.6153 50.5239 53.3527C53.6587 49.4978 57.7057 46.7149 61.2595 43.3676C62.2497 42.435 63.2248 41.2776 64.1117 40.2255C64.4781 39.791 64.7996 39.2686 65.1592 38.8145ZM61.285 27.0572C62.2984 26.5929 63.6626 26.8084 64.6057 27.4443C65.6134 28.1238 66.2051 29.2101 66.4978 30.4344C66.881 32.0378 66.5782 33.7628 66.0444 35.2511C63.7661 41.6317 57.5726 45.3792 52.7749 49.2534C50.6999 50.9291 48.9363 52.4021 47.1476 54.4828C45.5937 56.2904 44.4547 58.1439 43.4475 60.3736C42.6499 62.1396 41.8815 63.9322 40.9787 65.6372C39.0894 69.2066 36.7023 72.5229 33.3393 74.5186C31.2156 75.7789 28.7603 76.3559 26.5208 74.8423C23.4631 72.7755 23.197 68.1589 24.4253 64.9236C24.7019 64.1948 25.0468 63.5533 25.4211 62.8824C26.4528 61.2976 27.4117 60.3013 29.1307 59.6117C31.1573 58.7986 34.4107 59.219 35.3052 61.7748C35.9212 63.5352 34.5471 65.3701 32.9365 65.4577C31.934 65.5122 30.7803 65.1097 29.8086 65.3525C28.2371 66.0207 28.8504 68.5651 30.2955 69.162C31.302 69.6228 32.4534 69.5017 33.4495 69.0398C36.6401 67.5568 38.9415 63.955 40.4237 60.6379C41.6596 57.8719 42.5907 55.2934 44.347 52.826C46.0199 50.4759 47.9289 48.7463 50.1355 47.0398C51.3265 46.1341 52.5305 45.2486 53.7469 44.3838C56.3775 42.527 59.1016 40.7875 60.976 37.9518C61.6036 37.0023 62.582 35.3938 62.1103 34.0992C61.8691 33.4381 61.0048 33.1552 60.4314 32.9122C58.9386 32.2791 58.8085 30.406 59.3507 29.0334C59.7563 28.0131 60.3152 27.4547 61.285 27.0572ZM44.6336 63.7662C44.8228 63.6943 45.0602 63.667 45.1998 63.8682C45.5964 64.4399 45.8627 65.0989 46.2921 65.6542C46.386 65.7756 46.66 66.1525 46.6552 66.2889C46.5642 66.3961 46.5797 66.3639 46.4248 66.4062C46.0379 66.3572 45.6987 66.2227 45.3758 65.9776C44.7757 65.5217 44.154 64.5071 44.6336 63.7662ZM12.7492 52.3785C14.5952 51.7013 19.5977 54.1856 21.5114 54.9887C22.6754 55.4746 23.8526 55.9197 25.0401 56.325C26.1816 56.7109 27.2047 56.9057 28.3774 57.0797C28.5514 57.1055 28.6067 57.3138 28.5313 57.4955C27.8513 58.0639 23.2366 56.7443 22.2855 56.4171C21.7363 56.2282 20.193 55.4064 19.7416 55.4922C19.6577 55.5083 19.5895 55.5464 19.5521 55.634C19.5074 55.7386 19.504 55.9147 19.5666 56.0163C19.7479 56.3101 20.3508 56.5972 20.6336 56.8213C20.8652 57.0069 21.0809 57.2157 21.277 57.4455C22.0877 58.3928 22.4204 59.4737 22.6535 60.6961C22.6937 60.9066 22.7977 61.1528 22.8855 61.3467C23.2674 61.5585 23.5176 61.217 23.7592 60.9438C24.5868 59.933 25.8035 58.6101 27.2101 58.628C27.2759 58.6289 27.3514 58.7561 27.3693 58.8259C27.4867 59.3074 26.7444 59.5692 26.4601 59.8399C24.6925 61.5231 23.6474 63.7408 23.2168 66.2696C23.1583 66.6132 23.0404 67.5165 22.8963 67.8315C22.6232 68.4269 22.0912 67.9839 22.0518 67.438C21.9437 66.7166 21.9092 66.0537 21.8757 65.3469C21.8392 64.5311 21.7895 63.7157 21.7258 62.901C21.6034 61.4464 21.3559 59.1214 20.2717 58.1082C18.8422 56.8084 16.8981 56.3024 15.2877 55.3359C14.5932 54.9191 11.7609 53.5026 12.7492 52.3785ZM36.651 31.4053C38.036 30.9414 38.7345 32.4774 39.2721 33.5844C39.6338 34.3293 39.9299 35.0956 40.2588 35.8556C41.1084 37.8191 41.9148 39.8199 42.7998 41.7656C43.4072 43.089 44.0419 44.3987 44.7041 45.6916C45.1446 46.5451 46.2865 48.2998 46.1106 49.2355C45.8918 50.3961 43.9162 52.5702 42.9323 50.8666C42.6576 50.391 42.1435 49.5457 41.5499 50.0956C40.3364 51.346 40.0291 52.3418 40.3613 54.1305C40.5197 54.9833 40.6975 56.641 40.6269 57.4533C40.489 58.6376 39.8496 60.2287 39.1295 61.0979C38.6583 61.668 37.9253 61.8639 37.6792 60.9264C37.3499 59.6709 37.2623 58.2439 37.1074 56.9547L35.9935 47.323C35.7287 45.0354 35.4503 42.7491 35.1587 40.4645C34.9066 38.6039 34.5775 36.7488 34.4302 34.8666C34.3864 34.3078 34.3705 33.7596 34.5916 33.2502C34.9973 32.3162 35.7773 31.7282 36.651 31.4053ZM28.9751 35.4487C30.1344 35.1787 31.4546 34.9315 32.5351 35.6949C33.5989 36.447 34.2068 37.8981 34.4711 39.1959C34.7677 40.653 35.0083 42.6839 34.2526 43.9951C33.5839 45.1552 32.3956 45.358 31.2403 45.608C32.0947 45.7785 33.0761 45.8851 33.8869 46.2375C35.5622 46.9657 35.6894 49.1267 35.9202 50.7619C36.1487 52.4275 36.3557 54.096 36.5423 55.7665C36.6549 56.7531 36.7964 57.7231 36.8599 58.7175C36.9539 60.1145 36.2438 60.3887 35.1878 59.7104C34.1821 59.0644 33.4073 58.4161 33.0473 57.1741C32.8945 56.5628 32.7926 55.4998 32.713 54.8585C32.515 53.2311 32.3341 51.6075 32.0401 49.9928C31.9615 49.5617 31.4283 48.3577 30.9332 48.5222C30.3554 48.7151 30.6324 50.0404 30.7047 50.5518L31.0416 52.9335C31.1519 53.7336 31.3553 54.7508 31.0567 55.5065C30.6332 56.5781 29.1361 56.2859 28.3309 55.8911C27.6132 55.539 27.1057 54.8014 27.0523 53.9377C27.0197 53.3443 27.0329 52.7308 27.0024 52.1292C26.9613 51.3126 26.891 50.4969 26.7922 49.6843C26.4602 46.991 25.8166 44.3675 25.0011 41.789C24.4184 39.946 23.7916 37.576 25.7722 36.5617C26.3283 36.2771 26.944 36.0858 27.5314 35.879C27.9595 35.7192 28.5314 35.5522 28.9751 35.4487ZM30.5973 12.8234C32.4701 12.1105 34.6198 12.4959 36.2991 13.724C40.9464 17.1225 41.4289 24.5186 37.8201 28.7314C34.332 32.8031 29.2864 34.5893 24.5688 36.3645C23.6131 36.7056 23.0369 37.3855 23.3786 38.5598C24.0226 40.7727 24.8192 42.899 25.3629 45.1538C25.7625 46.7669 26.0538 48.4065 26.2344 50.0592C26.3317 50.9173 26.4752 52.0443 26.1888 52.8507C26.0579 53.2191 25.7549 53.5838 25.4084 53.7039C24.7412 53.9349 23.8611 53.6975 23.2421 53.3805C21.8634 52.6742 20.8855 51.339 21.0471 49.6334C21.0837 49.247 21.1732 48.8862 21.2437 48.507C21.3529 47.934 21.4177 47.3503 21.4384 46.7624C21.5118 44.5719 21.1641 42.186 20.4776 40.1015C20.1042 38.9678 19.5663 38.4474 18.4799 38.9696C17.3066 39.5337 15.9626 40.5108 15.3988 41.8162C15.1069 42.492 15.5203 43.197 16.2139 43.1568C16.6149 43.1471 17.114 43.2123 17.4984 43.3586C17.5475 43.3822 17.5964 43.4071 17.6446 43.4326C19.306 44.3174 19.3522 47.0762 18.6388 48.6105C17.3232 51.4398 14.1335 52.1135 11.5859 50.7046C10.097 49.8781 8.94851 48.4499 8.39033 46.7322C7.77333 44.8641 7.86535 42.8246 8.64581 41.0789C10.1485 37.6789 13.3422 35.818 16.5316 34.7773C18.0785 34.2726 19.6924 33.9232 21.2673 33.5023C22.3286 33.22 23.3782 32.8904 24.4126 32.514C25.5379 32.1264 26.6366 31.6582 27.7018 31.112C30.5788 29.6109 33.8306 27.1939 35.3812 24.0477C35.7914 23.0812 36.0644 21.9468 35.4228 20.9843C34.8517 20.128 34.0186 19.8918 33.2639 20.5528C32.801 20.9583 32.5975 21.5421 32.2034 22.0168C31.9145 22.3673 31.553 22.6376 31.1481 22.8061C29.4166 23.5146 27.9796 22.0948 27.379 20.3725C26.8454 18.8452 26.8832 17.1662 27.4848 15.7077C28.1007 14.2386 29.224 13.341 30.5973 12.8234ZM43.6958 27.0549C44.7763 26.6268 46.1692 26.5893 47.275 27.033C48.7844 27.6391 50.0265 29.3935 50.6866 30.9364C51.1234 32.0085 51.6729 33.6991 51.2639 34.8338C50.8182 36.0702 49.4732 36.0757 48.6852 35.1487C48.1416 34.5091 47.7921 33.838 47.2462 33.2231C47.0618 33.0154 46.8512 32.8997 46.6138 32.791C46.336 32.8225 46.2645 32.8291 46.0373 33.0091C45.7277 33.2546 45.5536 33.8091 45.5366 34.2382C45.4716 35.8908 45.9374 38.2908 46.9092 39.6362C47.1573 39.9748 47.5283 40.2938 47.9316 40.3278C49.2615 40.4394 49.5186 38.2742 50.8206 38.3486C51.1521 38.3677 51.4412 38.7329 51.6359 39.0107C51.6754 39.0846 51.7125 39.1599 51.7461 39.237C53.0934 42.3258 50.4802 48.5048 46.9305 46.9826C45.0393 46.1716 43.3082 42.1659 42.5522 40.1132C41.4782 37.1977 39.9112 32.8372 40.8631 29.7571C41.2653 28.4557 42.6002 27.5239 43.6958 27.0549ZM38.4243 40.921C38.3368 41.3315 38.432 41.7832 38.5017 42.1984C38.7605 43.7419 39.0185 45.2869 39.2787 46.8299C39.3693 47.3692 39.7207 48.0165 40.2881 47.7332C40.7302 47.2939 40.7301 46.6314 40.532 46.0402C40.3228 45.4158 38.7442 41.0049 38.4243 40.921ZM51.1126 25.8551C52.7606 25.4608 53.5706 26.095 53.8789 27.8669C54.0149 28.6492 54.3342 31.8706 54.6282 32.3349L54.695 32.3464C54.8022 32.0171 54.9517 31.0576 55.0383 30.658C55.2865 29.5154 55.6663 28.4161 56.1695 27.3866C56.6338 26.425 57.2896 25.278 58.309 24.9459C59.005 24.7108 59.8955 25.006 60.0891 25.8692C60.2744 26.6971 59.3045 27.4061 58.8514 27.9438C58.5459 28.3085 58.2662 28.6986 58.0145 29.1104C57.3366 30.2194 56.5739 31.7776 57.6889 32.9626C58.6166 33.9481 59.7421 33.7471 60.7888 34.3592C61.0436 34.5082 61.1753 34.94 61.2297 35.2461C61.2979 36.3857 60.4771 37.5921 59.4172 37.6092C57.9449 37.6327 57.0218 36.2229 56.1 35.1677C56.0223 35.0789 55.9423 35.0423 55.8344 35.0519C55.3607 35.7266 56.4028 37.8219 56.6888 38.5121C57.4077 40.2471 55.8609 41.6617 54.5771 42.2373C54.258 42.3785 53.9299 42.4345 53.605 42.2542C52.7214 41.7507 52.9079 40.4969 52.8928 39.6263C52.843 36.7778 52.168 33.841 51.2859 31.1468C50.9586 30.1471 50.4923 29.2079 50.1393 28.2259C49.7016 27.0084 49.9752 26.2481 51.1126 25.8551ZM29.1532 38.8263C28.433 39.4899 28.7503 40.3348 28.9522 41.1853C29.1312 41.9395 29.6436 43.3805 30.5741 42.7747C30.9219 42.3708 30.9947 42.0543 30.9803 41.4759C30.9563 40.517 30.3707 38.4024 29.1532 38.8263ZM39.8538 15.7085C40.2097 15.5918 40.415 15.693 40.6961 15.9843C41.1401 16.4446 41.5273 17.0006 41.8992 17.5313L43.6209 19.9989C45.7339 23.0179 46.0584 23.2122 49.4801 23.1584C51.2242 23.1243 52.9658 23.0286 54.7007 22.8707C55.0409 22.8401 55.562 22.7799 55.8593 23.0516C56.3297 23.454 55.9598 24.2042 55.4806 24.253C53.2836 24.477 50.9671 24.5354 48.7589 24.5345C48.4315 24.5266 48.1039 24.5117 47.7766 24.4904C45.0067 24.3125 44.3861 22.8858 42.751 20.699C42.6684 20.5885 42.6696 20.5756 42.5574 20.5689C42.444 20.6447 42.3856 20.7613 42.402 20.9098C42.6066 22.7622 42.5002 24.8387 41.6687 26.4738C41.3105 27.1782 40.7889 27.4608 40.0928 27.6331C40.3078 26.9814 40.5922 26.3995 40.8055 25.7123C41.7386 22.7053 41.3518 19.4547 39.7658 16.7047C39.5339 16.3024 39.5172 16.0068 39.8538 15.7085ZM24.8806 18.934C25.4223 18.7245 25.8744 18.8267 26.1524 19.4546C26.8515 21.0344 26.9572 23.1347 26.5919 24.7852C25.3957 30.1908 21.0043 31.5474 16.8678 33.3871C15.7714 33.8644 14.709 34.4257 13.6884 35.067C13.444 35.224 12.9834 35.629 12.7286 35.4394C12.7078 35.3805 12.6801 35.3353 12.6908 35.2716C12.7976 34.6415 19.1356 31.4215 20.176 30.8143C20.6596 30.532 21.1344 30.2229 21.5703 29.8604C23.4949 28.2594 23.7743 26.0006 23.8414 23.4698C23.8626 22.6678 23.8533 21.8536 23.9446 21.0592C24.042 20.2135 24.2445 19.4569 24.8806 18.934ZM28.7353 24.042C29.1178 23.8679 29.5681 23.89 29.7467 24.3716C30.1539 25.471 29.4807 26.8544 28.8558 27.6575C27.4989 29.4011 25.5339 30.7121 23.604 31.5639C23.258 31.7295 23.0809 31.8058 22.7073 31.8699C24.5258 30.8005 26.2914 29.2196 27.1785 27.1555C27.6673 26.0183 27.8353 24.7923 28.7353 24.042Z" fill="#FDFD9D"/>
</svg>
