<svg width="1024" height="1024" viewBox="0 0 1024 1024" fill="none" xmlns="http://www.w3.org/2000/svg">
<path d="M580.616 759.854C583.182 760.001 583.071 759.937 585.347 761.077C589.046 765.888 583.451 772.635 581.273 777.786C577.121 787.81 574.496 798.401 573.485 809.203C568.756 859.444 594.553 903.413 632.543 934.409C642.343 943.165 657.325 950.042 665.585 960.106C675.225 971.852 661.369 975.738 651.531 972.186C638.365 967.433 627.937 960.821 615.87 954.549C580.634 936.232 545.698 912.314 505.793 906.065C474.222 901.481 446.968 923.52 421.666 938.25C401.689 949.424 382.677 961.406 360.496 967.963C354.676 969.684 331.941 976.768 334.407 962.486C335.361 956.966 341.455 953.203 346.097 950.496C357.595 944.399 369.045 938.199 380.417 931.793C421.717 908.531 458.707 877.732 491.71 843.863C498.398 837 504.598 829.275 510.974 822.11C500.342 844.601 480.637 871.91 463.103 889.838C456.83 896.252 446.623 903.175 441.829 908.665C441.642 910.745 441.469 909.748 442.598 911.711C446.897 914.065 468.627 901.404 475.398 899.155C482.546 896.79 490.017 895.538 497.546 895.446C527.111 895.057 548.267 907.729 575.843 913.495C577.242 913.788 578.002 912.437 578.581 911.532C578.3 908.052 572.805 900.643 570.671 897.578C547.32 864.038 542.95 816.832 562.366 780.466C566.759 772.24 571.465 764.041 580.616 759.854ZM955.195 566.891C957.431 566.642 960.979 566.445 961.672 569.148C964.025 578.32 947.338 591.192 941.458 596.528C918.642 617.228 892.215 633.357 868.649 653.076C852.184 666.853 832.734 686.043 834.577 709.44C835.533 720.602 840.055 731.621 843.411 742.313C851.638 768.514 860.726 794.644 868.422 820.978C871.657 832.049 859.173 841.458 850.437 836.653C841.481 831.73 838.241 805.182 833.843 795.917C825.198 766.999 813.597 738.456 809.303 708.726C808.392 702.423 813.481 690.27 815.994 684.776C804.516 692.124 790.577 701.782 779.58 709.791C741.788 737.315 669.614 770.203 680.08 827.077C682.62 840.554 690.438 852.458 701.794 860.145C732.633 881.285 764.933 860.1 747.84 824.267C740.378 809.022 725.053 792.121 738.05 774.677C753.792 753.549 780.445 762.612 797.648 774.683C831.202 799.86 846.785 850.644 839.263 891.208C828.712 948.101 776.998 976.994 722.014 965.844C711.128 963.637 702.51 960.62 692.145 956.569C624.552 930.144 562.604 842.472 604.183 771.661C617.451 749.065 639.047 732.818 660.743 718.66C726.876 675.404 803.19 651.379 873.937 617.177C893.649 607.648 914.043 594.797 932.595 583.118C940.256 578.296 947.56 572.025 955.195 566.891ZM941.667 380.711C959.817 378.068 980.779 386.708 993.257 399.739C1006.59 413.662 1011.57 431.8 1011.2 450.738C1010.71 475.541 998.738 499.331 984.041 518.762C921.195 602.107 806.534 631.464 713.691 668.285C673.534 684.212 639.204 698.443 601.961 721.401C569.603 741.347 543.701 763.634 518.357 791.909C498.286 814.304 478.579 837.198 457.074 858.282C412.072 902.424 360.148 940.881 298.043 956.249C258.823 965.954 217.122 964.404 187.508 933.408C147.074 891.089 161.882 823.067 194.919 781.103C202.361 771.65 210.521 763.741 219.288 755.523C242.36 736.698 261.834 726.115 292.218 723.053C328.036 719.442 378.396 738.68 382.162 779.361C384.755 807.379 355.174 828.445 329.017 823.213C312.735 819.956 295.924 809.457 279.358 809.056C251.427 812.403 250.74 851.79 271.425 866.277C285.64 877.023 304.57 879.908 322.431 877.229C379.66 868.604 431.398 825.656 468.841 783.528C500.061 748.403 525.618 714.767 563.939 686.072C600.441 658.74 638.164 641.36 680.557 625.517C703.373 617.188 726.314 609.207 749.37 601.574C799.17 585.264 849.976 571.031 891.711 537.47C905.684 526.233 927.998 506.866 925.791 486.187C924.663 475.623 911.999 468.033 903.818 462.193C882.517 446.985 888.172 419.294 902.527 401.573C913.239 388.412 924.493 382.561 941.667 380.711ZM523.38 845.847C526.708 845.567 530.626 846.115 532.032 849.599C536.024 859.492 537.563 870.129 542.147 879.917C543.149 882.057 545.987 888.625 545.348 890.583C543.437 891.778 543.825 891.375 541.158 891.364C535.162 889.091 530.289 885.765 526.13 880.903C518.403 871.869 512.638 854.657 523.38 845.847ZM59.8321 552.044C92.1943 549.675 162.053 605.894 189.385 625.266C206.019 637.013 223.02 648.232 240.362 658.904C257.052 669.11 272.643 676.052 290.707 683.311C293.386 684.387 293.405 687.637 291.446 689.968C278.206 695.466 209.752 657.706 195.87 649.121C187.855 644.165 166.524 625.998 158.945 625.431C157.535 625.326 156.293 625.598 155.332 626.718C154.183 628.055 153.392 630.603 153.977 632.329C155.666 637.323 164.143 643.916 167.745 648.307C170.688 651.934 173.274 655.838 175.467 659.964C184.537 676.976 185.403 693.986 184.087 712.656C183.86 715.872 184.511 719.862 185.115 723.03C190.357 727.647 195.771 723.71 200.771 720.722C218.2 709.403 243.156 695.116 265.611 701.055C266.663 701.334 267.342 703.484 267.34 704.569C267.239 712.03 254.267 712.826 248.594 715.606C213.328 732.882 187.433 760.834 170.091 795.775C167.735 800.522 162.12 813.135 158.51 817.121C151.675 824.667 144.987 816.094 146.61 808.016C147.859 797.114 150.045 787.362 152.428 776.975C155.214 764.994 157.781 752.963 160.127 740.889C164.176 719.297 169.815 684.581 156.636 665.509C139.11 640.887 110.073 625.698 88.2735 605.18C78.874 596.333 39.3534 564.357 59.8321 552.044ZM529.231 344.296C553.334 343.154 558.178 368.251 562.216 386.478C564.932 398.742 566.5 411.047 568.628 423.398C574.123 455.307 578.769 487.583 584.906 519.376C589.167 541.023 593.933 562.568 599.196 583.993C602.725 598.149 613.761 628.216 607.073 641.076C598.778 657.027 558.152 680.584 549.432 651.902C546.998 643.896 542.263 629.553 530.485 635.132C505.877 648.37 496.841 661.572 494.773 688.861C493.787 701.868 489.791 726.628 485.305 738.124C478.206 754.744 461.393 775.232 446.269 784.932C436.366 791.304 423.817 791.19 423.751 776.593C423.663 757.054 428.148 736.012 430.993 716.689L452.952 572.497C458.161 538.247 463.15 503.965 467.919 469.651C471.567 441.646 473.948 413.424 479.364 385.53C480.973 377.245 482.979 369.236 488.627 362.739C498.985 350.827 513.899 345.45 529.231 344.296ZM364.714 372.459C372.234 371.869 382.085 371.763 389.62 372.055C409.307 372.82 431.472 374.555 445.622 389.996C459.553 405.2 463.281 428.694 462.151 448.584C460.884 470.914 456.36 501.345 438.84 517.311C423.338 531.439 403.47 529.579 383.933 528.54C396.915 534.462 412.177 539.971 423.707 548.357C447.532 565.682 440.638 597.526 437.579 622.174C434.358 647.257 430.79 672.293 426.878 697.277C424.605 712.042 422.858 726.671 419.767 741.349C415.502 761.996 403 763.109 388.888 749.005C375.448 735.575 365.724 723.05 365.09 703.582C365.168 694.1 367.916 678.273 369.29 668.649C372.842 644.243 376.66 619.967 378.622 595.359C379.145 588.791 375.586 569.18 366.977 569.568C356.915 570.02 355.889 590.365 354.933 598.075L350.478 633.982C348.94 646.032 348.007 661.611 340.102 671.366C328.892 685.198 306.123 674.909 294.858 665.933C284.812 657.928 279.733 645.184 282.447 632.438C284.377 623.698 287.115 614.858 289.111 606.009C291.826 593.998 294.073 581.886 295.848 569.701C301.657 529.299 302.194 488.66 299.786 447.971C298.066 418.885 297.806 381.981 333.729 375.271C343.812 373.388 354.451 373.086 364.714 372.459ZM509.025 50.3439C541.966 47.5636 574.811 61.8252 596.634 86.4181C657.024 154.469 634.185 263.683 558.983 310.213C486.299 355.186 398.116 360.722 315.226 367.423C298.512 368.512 286.483 376.045 287.105 394.457C288.276 429.153 292.249 463.209 291.642 498.108C291.379 523.119 289.271 548.076 285.336 572.778C283.349 585.615 280.99 602.53 273.071 613.07C269.454 617.886 263.099 621.953 257.053 622.296C245.412 622.956 232.291 615.961 223.686 608.862C204.523 593.054 194.384 569.744 204.017 545.658C206.2 540.2 209.113 535.324 211.81 530.108C215.926 522.238 219.383 514.04 222.145 505.598C232.369 474.124 236.651 438.117 234.269 405.113C232.972 387.163 226.509 377.442 206.951 380.631C185.829 384.075 160.263 392.817 145.841 409.474C138.374 418.097 142.09 430.003 153.367 432.218C159.829 433.696 167.55 436.648 173.103 440.32C173.791 440.862 174.469 441.416 175.136 441.982C198.096 461.52 187.432 501.724 169.665 521.098C136.906 556.821 83.0457 553.71 48.0655 522.988C27.6343 504.991 15.1368 479.652 13.293 452.487C11.1279 422.9 21.0294 393.697 40.7413 371.528C78.8544 328.279 137.692 314.181 193.073 311.964C219.934 310.889 247.22 312.342 274.183 312.595C292.347 312.785 310.513 312.239 328.634 310.955C348.26 309.877 367.794 307.52 387.112 303.898C439.391 293.741 501.445 271.81 539.274 232.44C549.836 220.077 558.899 204.739 552.599 188.19C546.991 173.46 534.631 166.669 519.813 173.209C510.72 177.222 505.042 184.864 496.766 190.158C490.692 194.075 483.795 196.535 476.613 197.345C445.955 200.632 428.806 174.245 426.302 146.841C424.064 122.534 431.611 98.3355 447.273 79.6105C463.205 60.7913 484.892 52.3071 509.025 50.3439ZM660.034 309.606C679.108 307.758 701.565 312.829 717.441 323.729C739.117 338.611 751.762 369.068 755.961 394.112C758.528 411.425 760.343 438.164 749.102 452.971C736.855 469.104 715.297 463.752 706.508 447.123C700.444 435.652 697.614 424.515 691.411 413.392C689.317 409.635 686.432 407.102 683.079 404.567C678.496 403.901 677.328 403.713 672.945 405.407C666.971 407.716 661.884 415.053 659.84 421.21C651.971 444.915 649.517 481.599 659.523 505.036C662.096 510.952 666.728 517.074 673.053 519.195C693.89 526.182 706.941 495.821 727.485 502.155C732.719 503.77 735.844 510.233 737.815 515.05C738.143 516.282 738.416 517.527 738.636 518.782C747.454 569.02 680.076 648.088 629.514 611.678C602.576 592.28 591.412 527.193 587.783 494.37C582.627 447.751 575.536 378.183 603.506 337.354C615.323 320.104 640.551 311.986 660.034 309.606ZM518.328 489.404C515.227 495.006 514.883 501.936 514.283 508.242C512.052 531.676 509.799 555.127 507.591 578.56C506.814 586.749 509.764 597.56 520.027 595.736C528.928 591.148 531.666 581.534 530.934 572.156C530.162 562.255 523.105 491.913 518.328 489.404ZM783.784 322.186C811.809 323.119 822.169 335.597 819.785 362.543C818.733 374.438 810.525 422.443 813.316 430.363L814.344 430.793C817.422 426.451 823.771 413.147 826.809 407.702C835.506 392.131 846.14 377.722 858.454 364.82C869.863 352.748 885.1 338.766 902.798 338.066C914.916 337.465 927.955 345.331 927.489 358.631C927.041 371.39 908.575 377.759 899.097 383.73C892.696 387.786 886.604 392.311 880.871 397.268C865.432 410.616 846.781 430.128 859.743 451.817C870.528 469.862 889.393 471.485 903.63 484.59C907.095 487.779 907.416 494.572 907.023 499.231C903.409 516.035 885.288 530.217 868.24 526.186C844.558 520.587 835.603 496.42 825.198 477.394C824.32 475.788 823.188 474.931 821.42 474.633C811.039 482.5 819.08 517.097 820.811 528.265C825.162 556.334 794.544 570.605 771.604 573.772C765.906 574.532 760.42 574.023 755.958 570.094C743.886 559.224 752.048 541.79 755.4 529.102C766.371 487.588 767.691 442.276 764.694 399.642C763.582 383.819 759.996 368.314 758.399 352.646C756.42 333.221 763.945 323.293 783.784 322.186ZM396.843 467.561C400.422 453.561 399.789 420.525 378.534 421.758C364.256 428.476 365.846 441.996 365.565 455.147C365.316 466.808 367.568 489.788 384.982 484.749C392.22 480.295 394.684 476.007 396.843 467.561ZM645.384 129.535C651.567 129.28 654.44 131.568 657.737 136.929C662.948 145.399 666.85 155.028 670.614 164.228L687.983 206.955C709.356 259.279 713.749 263.41 768.776 276.445C796.85 282.99 825.128 288.624 853.566 293.337C859.142 294.268 867.739 295.502 871.379 300.647C877.252 308.382 868.236 317.76 860.359 316.534C824.247 310.914 786.904 302.407 751.54 293.479C746.327 292.041 741.141 290.507 735.984 288.876C692.359 275.115 688.322 251.928 671.168 213.612C670.298 211.669 670.372 211.487 668.602 210.937C666.472 211.578 665.054 213.03 664.704 215.251C660.329 242.944 650.048 272.634 629.976 292.992C621.328 301.763 611.805 303.748 599.943 303.436C606.08 294.852 613.037 287.562 619.292 278.454C646.658 238.61 653.901 189.912 639.861 143.626C637.806 136.852 638.758 132.502 645.384 129.535ZM392.241 115.928C401.784 115.076 408.601 118.378 410.459 128.608C415.132 154.344 408.142 185.233 395.473 207.698C353.984 281.268 278.059 283.211 204.211 293.193C184.677 295.689 165.342 299.543 146.345 304.725C141.78 306.015 132.735 310.031 129.44 306.247C129.35 305.308 129.086 304.549 129.52 303.668C133.815 294.961 248.64 273.844 267.812 269.237C276.725 267.095 285.607 264.536 294.088 261.037C331.528 245.589 345.328 213.949 356.857 177.514C360.511 165.965 363.728 154.12 368.474 142.966C373.527 131.094 379.895 120.944 392.241 115.928ZM432.873 205.54C439.72 204.559 446.838 206.692 447.707 214.4C449.688 231.991 433.182 249.339 419.857 258.463C390.919 278.274 354.033 289.35 319.604 293.913C313.38 294.918 310.238 295.311 303.99 294.733C337.533 286.563 372.341 270.764 395.076 244.408C407.602 229.887 415.356 212.787 432.873 205.54Z" fill="#FDFD9D"/>
</svg>
